HIERARCHY
ROOT joint_Root
{
	OFFSET 0.0 0.0 0.0
	CHANNELS 6 Xposition Yposition Zposition Zrotation Xrotation Yrotation 
	JOINT Hips
	{
		OFFSET 4.5925 91.4895 -427.239
		CHANNELS 6 Xposition Yposition Zposition Zrotation Xrotation Yrotation 
		JOINT Spine
		{
			OFFSET 15.7357 0.0 0.0
			CHANNELS 6 Xposition Yposition Zposition Zrotation Xrotation Yrotation 
			JOINT Chest
			{
				OFFSET 8.98455 -0.406207 0.0
				CHANNELS 6 Xposition Yposition Zposition Zrotation Xrotation Yrotation 
				JOINT Neck
				{
					OFFSET 16.3773 0.0 0.0
					CHANNELS 6 Xposition Yposition Zposition Zrotation Xrotation Yrotation 
					JOINT Head
					{
						OFFSET 6.45672 0.0 0.0
						CHANNELS 6 Xposition Yposition Zposition Zrotation Xrotation Yrotation 
						End Site
						{
							OFFSET 0.0 0.0 0.0
						}
					}
				}
				JOINT Shoulder_L
				{
					OFFSET 12.9942 -0.242716 4.98039
					CHANNELS 6 Xposition Yposition Zposition Zrotation Xrotation Yrotation 
					JOINT UpperArm_L
					{
						OFFSET 5.34809 0.0 0.0
						CHANNELS 6 Xposition Yposition Zposition Zrotation Xrotation Yrotation 
						JOINT LowerArm_L
						{
							OFFSET 24.3286 1.87007e-05 0.0
							CHANNELS 6 Xposition Yposition Zposition Zrotation Xrotation Yrotation 
							JOINT Hand_L
							{
								OFFSET 22.2916 0.0 0.0
								CHANNELS 6 Xposition Yposition Zposition Zrotation Xrotation Yrotation 
								End Site
								{
									OFFSET 0.0 0.0 0.0
								}
							}
						}
					}
				}
				JOINT Shoulder_R
				{
					OFFSET 12.9945 -0.242716 -4.98039
					CHANNELS 6 Xposition Yposition Zposition Zrotation Xrotation Yrotation 
					JOINT UpperArm_R
					{
						OFFSET -5.34813 0.0 0.0
						CHANNELS 6 Xposition Yposition Zposition Zrotation Xrotation Yrotation 
						JOINT LowerArm_R
						{
							OFFSET -24.3289 0.000322201 0.0
							CHANNELS 6 Xposition Yposition Zposition Zrotation Xrotation Yrotation 
							JOINT Hand_R
							{
								OFFSET -22.2915 -0.000108084 0.0
								CHANNELS 6 Xposition Yposition Zposition Zrotation Xrotation Yrotation 
								End Site
								{
									OFFSET 0.0 0.0 0.0
								}
							}
						}
					}
				}
			}
		}
		JOINT UpperLeg_L
		{
			OFFSET -2.19248 -6.46944 0.0
			CHANNELS 6 Xposition Yposition Zposition Zrotation Xrotation Yrotation 
			JOINT LowerLeg_L
			{
				OFFSET 39.0811 0.0 -1.23785e-05
				CHANNELS 6 Xposition Yposition Zposition Zrotation Xrotation Yrotation 
				JOINT Foot_L
				{
					OFFSET 40.9854 0.0 -1.26872e-05
					CHANNELS 6 Xposition Yposition Zposition Zrotation Xrotation Yrotation 
					JOINT Toes_L
					{
						OFFSET 11.7543 0.0 0.0
						CHANNELS 6 Xposition Yposition Zposition Zrotation Xrotation Yrotation 
						End Site
						{
							OFFSET 0.0 0.0 0.0
						}
					}
				}
			}
		}
		JOINT UpperLeg_R
		{
			OFFSET -2.19251 6.46944 0.0
			CHANNELS 6 Xposition Yposition Zposition Zrotation Xrotation Yrotation 
			JOINT LowerLeg_R
			{
				OFFSET -39.0811 -0.00228153 -0.0401928
				CHANNELS 6 Xposition Yposition Zposition Zrotation Xrotation Yrotation 
				JOINT Foot_R
				{
					OFFSET -40.9854 0.0 0.0
					CHANNELS 6 Xposition Yposition Zposition Zrotation Xrotation Yrotation 
					JOINT Toes_R
					{
						OFFSET -11.7543 0.0 0.0
						CHANNELS 6 Xposition Yposition Zposition Zrotation Xrotation Yrotation 
						End Site
						{
							OFFSET 0.0 0.0 0.0
						}
					}
				}
			}
		}
	}
}
MOTION
Frames:	6
Frame Time:	0.0333333
0.000000 0.000000 0.000000 0.000000 0.000000 -0.000000 -2.679600 86.584000 -81.386700 89.234000 -5.862910 -8.741160 15.735700 0.000005 -0.000001 107.522000 81.936900 -109.408000 8.984550 -0.406207 -0.000000 7.715380 4.836650 -4.096070 16.377300 -0.000001 -0.000001 -1.433950 -2.544850 3.127700 6.456720 -0.000001 -0.000000 -10.301200 -5.611600 2.692950 12.994200 -0.242716 4.980390 -91.595300 3.742900 -66.882000 5.348090 -0.000007 -0.000001 -62.102300 2.703600 9.975090 24.328600 0.000019 0.000005 17.556100 9.929880 -61.416600 22.291600 -0.000001 0.000005 9.800640 5.494710 -6.318020 12.994500 -0.242716 -4.980390 88.758400 7.804060 -80.933000 -5.348130 -0.000001 -0.000004 -56.355400 27.894900 -13.425900 -24.328900 0.000322 -0.000009 -8.224060 -6.168500 -53.390300 -22.291500 -0.000108 -0.000004 16.051600 5.592400 -10.841900 -2.192480 -6.469440 -0.000000 172.003000 -10.106500 -42.927800 39.081100 -0.000007 -0.000012 0.286769 -0.303108 43.413500 40.985400 -0.000006 -0.000013 7.339260 -2.980470 -60.971300 11.754300 -0.000000 0.000003 -0.004942 -0.060915 -19.055300 -2.192510 6.469440 -0.000001 173.517000 7.903920 172.425000 -39.081100 -0.002282 -0.040193 0.525473 0.073701 98.043500 -40.985400 0.000008 0.000006 2.046140 -2.624400 -25.273000 -11.754300 -0.000006 -0.000006 -0.015868 -0.143216 -22.417700
0.000000 0.000000 0.000000 0.000000 0.000000 -0.000000 -2.511440 83.261500 -70.435900 91.641900 -0.994832 -7.421630 15.735700 0.000005 -0.000001 95.454800 81.498000 -97.674500 8.984550 -0.406207 -0.000000 9.198100 1.579850 -4.562940 16.377300 -0.000001 -0.000001 -3.006520 -3.834420 2.392930 6.456720 -0.000001 -0.000000 -10.027100 -5.851800 3.640070 12.994200 -0.242716 4.980390 -92.050000 5.463030 -69.392800 5.348090 -0.000007 -0.000001 -60.300100 4.927430 -3.415850 24.328600 0.000019 0.000005 14.949300 6.918690 -65.719700 22.291600 -0.000001 0.000005 12.360400 5.495890 -6.367700 12.994500 -0.242716 -4.980390 88.301000 9.524790 -79.837200 -5.348130 -0.000001 -0.000004 -57.622700 30.123400 -5.234280 -24.328900 0.000322 -0.000009 -8.026830 -9.240000 -41.267300 -22.291500 -0.000108 -0.000004 13.858600 5.575050 -9.943810 -2.192480 -6.469440 -0.000000 171.727000 -1.849780 -40.502600 39.081100 -0.000007 -0.000012 -0.515846 0.323327 57.922100 40.985400 -0.000006 -0.000013 4.594200 -7.681480 -75.407600 11.754300 -0.000000 0.000003 -0.000031 -0.000377 -16.592300 -2.192510 6.469440 -0.000001 173.923000 10.812400 159.568000 -39.081100 -0.002282 -0.040193 0.331851 0.180273 118.767000 -40.985400 0.000008 0.000006 4.185970 -3.212360 -24.715600 -11.754300 -0.000006 -0.000006 -0.017056 -0.150401 -22.712900
0.000000 0.000000 0.000000 0.000000 0.000000 -0.000000 -2.223000 81.547800 -59.840700 93.236400 2.193320 -7.775530 15.735700 0.000005 -0.000001 87.036400 81.265000 -89.434800 8.984550 -0.406207 -0.000000 9.666380 -0.937652 -4.713750 16.377300 -0.000001 -0.000001 -3.684110 -4.762650 2.124610 6.456720 -0.000001 -0.000000 -9.963430 -5.504500 4.197820 12.994200 -0.242716 4.980390 -91.358000 4.335050 -72.595300 5.348090 -0.000007 -0.000001 -60.808200 4.671670 -16.896500 24.328600 0.000019 0.000005 15.427500 4.971750 -72.571400 22.291600 -0.000001 0.000005 11.939900 5.501260 -6.584320 12.994500 -0.242716 -4.980390 88.186800 9.191630 -78.790100 -5.348130 -0.000001 -0.000004 -61.150800 30.031400 3.400320 -24.328900 0.000322 -0.000009 -0.643758 -1.025470 -31.723700 -22.291500 -0.000108 -0.000004 10.031100 5.555280 -8.953770 -2.192480 -6.469440 -0.000000 170.275000 -2.775030 -33.756500 39.081100 -0.000007 -0.000012 -0.797166 0.429223 61.702400 40.985400 -0.000006 -0.000013 5.419970 -5.131030 -86.061000 11.754300 -0.000000 0.000003 -0.000077 -0.000823 -16.609300 -2.192510 6.469440 -0.000001 175.919000 11.687200 140.948000 -39.081100 -0.002282 -0.040193 -0.177753 -0.166647 132.606000 -40.985400 0.000008 0.000006 8.923570 -5.613070 -23.669500 -11.754300 -0.000006 -0.000006 -0.016485 -0.146975 -22.572100
0.000000 0.000000 0.000000 0.000000 0.000000 -0.000000 -2.743990 81.784700 -47.945900 91.003300 5.870990 -9.221110 15.735700 0.000005 -0.000001 75.598100 81.637400 -76.791600 8.984550 -0.406207 -0.000000 8.407800 -4.147120 -2.080450 16.377300 -0.000001 -0.000001 -3.417080 -4.673190 1.797900 6.456720 -0.000001 -0.000000 -9.149740 -3.974620 4.218630 12.994200 -0.242716 4.980390 -90.524500 1.864150 -74.293700 5.348090 -0.000007 -0.000001 -60.216300 4.393400 -26.402000 24.328600 0.000019 0.000005 12.780400 2.242880 -80.230000 22.291600 -0.000001 0.000005 12.509400 5.501220 -6.580720 12.994500 -0.242716 -4.980390 88.060800 8.353230 -76.878900 -5.348130 -0.000001 -0.000004 -63.580300 32.411900 11.916100 -24.328900 0.000322 -0.000009 3.046960 4.803270 -32.471900 -22.291500 -0.000108 -0.000004 6.601730 5.566220 -9.503470 -2.192480 -6.469440 -0.000000 174.773000 -3.105430 -22.825700 39.081100 -0.000007 -0.000012 -0.578239 0.386262 56.258500 40.985400 -0.000006 -0.000013 6.482260 -2.270170 -93.001900 11.754300 -0.000000 0.000003 -0.823624 -1.032600 -15.935000 -2.192510 6.469440 -0.000001 -177.274000 11.736300 127.333000 -39.081100 -0.002282 -0.040193 -0.559724 -0.550852 134.366000 -40.985400 0.000008 0.000006 13.140100 -10.424800 -31.162700 -11.754300 -0.000006 -0.000006 -0.014857 -0.136916 -22.159000
0.000000 0.000000 0.000000 0.000000 0.000000 -0.000000 -3.611000 84.000000 -34.599000 87.495000 9.225490 -10.411000 15.735700 0.000005 -0.000001 63.258600 81.943000 -62.600200 8.984550 -0.406207 -0.000000 6.707590 -7.233910 1.741280 16.377300 -0.000001 -0.000001 -2.716770 -4.548970 1.173450 6.456720 -0.000001 -0.000000 -8.399320 -2.059580 3.237210 12.994200 -0.242716 4.980390 -89.947200 -0.194323 -74.798500 5.348090 -0.000007 -0.000001 -59.452100 4.557680 -30.886600 24.328600 0.000019 0.000005 8.417500 0.494571 -86.681500 22.291600 -0.000001 0.000005 13.861700 5.501700 -6.604860 12.994500 -0.242716 -4.980390 88.131700 6.805100 -74.604100 -5.348130 -0.000001 -0.000004 -65.702900 34.793300 19.671900 -24.328900 0.000322 -0.000009 0.785229 1.070910 -36.322900 -22.291500 -0.000108 -0.000004 5.496580 5.574000 -9.895600 -2.192480 -6.469440 -0.000000 -178.652000 -2.837790 -9.685620 39.081100 -0.000007 -0.000012 0.098879 -0.103297 43.747200 40.985400 -0.000006 -0.000013 8.496540 0.717955 -86.234500 11.754300 -0.000000 0.000003 -0.026034 -0.198686 -24.707800 -2.192510 6.469440 -0.000001 -171.429000 7.890800 121.887000 -39.081100 -0.002282 -0.040193 -0.449003 -0.322103 125.446000 -40.985400 0.000008 0.000006 10.921700 -11.517900 -43.753100 -11.754300 -0.000006 -0.000006 -0.015647 -0.141852 -22.361700
0.000000 0.000000 0.000000 0.000000 0.000000 -0.000000 -4.026490 87.487100 -21.285300 85.011200 11.817300 -13.436800 15.735700 0.000005 -0.000001 49.740500 82.610300 -47.412700 8.984550 -0.406207 -0.000000 3.757280 -9.620370 4.975260 16.377300 -0.000001 -0.000001 -2.076360 -4.401830 0.830508 6.456720 -0.000001 -0.000000 -7.643450 -0.639949 2.237590 12.994200 -0.242716 4.980390 -89.565400 -1.560720 -74.441700 5.348090 -0.000007 -0.000001 -59.380500 6.589300 -32.142000 24.328600 0.000019 0.000005 6.706200 -0.088928 -90.751700 22.291600 -0.000001 0.000005 12.848600 5.489190 -6.092240 12.994500 -0.242716 -4.980390 88.661900 4.465810 -73.298100 -5.348130 -0.000001 -0.000004 -67.922000 31.870700 25.781200 -24.328900 0.000322 -0.000009 1.474310 1.812630 -39.139300 -22.291500 -0.000108 -0.000004 5.147320 5.579680 -10.193800 -2.192480 -6.469440 -0.000000 -173.017000 -3.201190 -3.201490 39.081100 -0.000007 -0.000012 0.032109 -0.047630 33.984300 40.985400 -0.000006 -0.000013 4.800640 5.957050 -63.516700 11.754300 -0.000000 0.000003 -0.235419 -0.700945 -46.907900 -2.192510 6.469440 -0.000001 -169.109000 3.911320 117.900000 -39.081100 -0.002282 -0.040193 -0.144433 -0.053509 109.877000 -40.985400 0.000008 0.000006 8.168560 -10.448700 -54.029100 -11.754300 -0.000006 -0.000006 -0.013747 -0.129773 -21.866000
